<?xml version="1.0" standalone="no"?>
<!DOCTYPE svg PUBLIC "-//W3C//DTD SVG 20010904//EN"
 "http://www.w3.org/TR/2001/REC-SVG-20010904/DTD/svg10.dtd">
<svg version="1.0" xmlns="http://www.w3.org/2000/svg"
 width="512.000000pt" height="512.000000pt" viewBox="0 0 512.000000 512.000000"
 preserveAspectRatio="xMidYMid meet">

<g transform="translate(0.000000,512.000000) scale(0.100000,-0.100000)"
fill="#000000" stroke="none">
<path d="M0 2560 l0 -2560 938 1 c564 1 898 5 839 10 -269 22 -534 115 -767
270 -135 90 -335 291 -428 431 -156 235 -241 481 -262 757 -60 812 508 1531
1325 1676 108 20 382 26 468 12 l47 -8 0 -420 c0 -328 -3 -419 -12 -419 -7 0
-47 7 -88 16 -100 21 -259 14 -355 -16 -131 -41 -222 -96 -321 -195 -77 -76
-98 -105 -137 -185 -66 -133 -82 -200 -81 -345 0 -140 16 -209 74 -330 72
-149 194 -270 345 -345 119 -58 190 -74 330 -74 144 0 213 16 340 78 151 75
264 188 339 341 85 173 79 11 84 2053 l4 1812 -1341 0 -1341 0 0 -2560z"/>
<path d="M3514 5033 c25 -316 156 -598 380 -818 229 -226 508 -354 814 -374
l97 -6 3 -412 2 -413 -90 0 c-177 0 -453 54 -648 126 -173 65 -401 186 -513
275 -20 16 -40 29 -44 29 -4 0 -6 -451 -4 -1002 2 -925 1 -1011 -15 -1103 -59
-330 -194 -597 -421 -834 -272 -284 -628 -455 -1015 -490 -56 -5 553 -9 1483
-10 l1577 -1 0 2560 0 2560 -806 0 -807 0 7 -87z"/>
</g>
</svg>
